<svg id="visual" viewBox="0 0 2500 150" width="2500" height="150" xmlns="http://www.w3.org/2000/svg" xmlns:xlink="http://www.w3.org/1999/xlink" version="1.1"><path d="M0 89L34.7 84.8C69.3 80.7 138.7 72.3 208.2 74C277.7 75.7 347.3 87.3 416.8 83.3C486.3 79.3 555.7 59.7 625 56.2C694.3 52.7 763.7 65.3 833.2 71.7C902.7 78 972.3 78 1041.8 78.5C1111.3 79 1180.7 80 1250 79.3C1319.3 78.7 1388.7 76.3 1458.2 71.3C1527.7 66.3 1597.3 58.7 1666.8 59.8C1736.3 61 1805.7 71 1875 80.5C1944.3 90 2013.7 99 2083.2 103.8C2152.7 108.7 2222.3 109.3 2291.8 105.8C2361.3 102.3 2430.7 94.7 2465.3 90.8L2500 87L2500 0L2465.3 0C2430.7 0 2361.3 0 2291.8 0C2222.3 0 2152.7 0 2083.2 0C2013.7 0 1944.3 0 1875 0C1805.7 0 1736.3 0 1666.8 0C1597.3 0 1527.7 0 1458.2 0C1388.7 0 1319.3 0 1250 0C1180.7 0 1111.3 0 1041.8 0C972.3 0 902.7 0 833.2 0C763.7 0 694.3 0 625 0C555.7 0 486.3 0 416.8 0C347.3 0 277.7 0 208.2 0C138.7 0 69.3 0 34.7 0L0 0Z" fill="#60a87e" stroke-linecap="round" stroke-linejoin="miter"></path></svg>