<svg id="visual" viewBox="0 0 2500 150" width="2500" height="150" xmlns="http://www.w3.org/2000/svg" xmlns:xlink="http://www.w3.org/1999/xlink" version="1.1"><path d="M0 74L20.8 72.8C41.7 71.7 83.3 69.3 125 69C166.7 68.7 208.3 70.3 250 77C291.7 83.7 333.3 95.3 375 89.5C416.7 83.7 458.3 60.3 500 55.5C541.7 50.7 583.3 64.3 625 66C666.7 67.7 708.3 57.3 750 62.8C791.7 68.3 833.3 89.7 875 92.5C916.7 95.3 958.3 79.7 1000 74.7C1041.7 69.7 1083.3 75.3 1125 75.8C1166.7 76.3 1208.3 71.7 1250 75.2C1291.7 78.7 1333.3 90.3 1375 85.3C1416.7 80.3 1458.3 58.7 1500 55.5C1541.7 52.3 1583.3 67.7 1625 74.2C1666.7 80.7 1708.3 78.3 1750 78.3C1791.7 78.3 1833.3 80.7 1875 75.3C1916.7 70 1958.3 57 2000 53.3C2041.7 49.7 2083.3 55.3 2125 58.5C2166.7 61.7 2208.3 62.3 2250 67.7C2291.7 73 2333.3 83 2375 82.2C2416.7 81.3 2458.3 69.7 2479.2 63.8L2500 58L2500 151L2479.2 151C2458.3 151 2416.7 151 2375 151C2333.3 151 2291.7 151 2250 151C2208.3 151 2166.7 151 2125 151C2083.3 151 2041.7 151 2000 151C1958.3 151 1916.7 151 1875 151C1833.3 151 1791.7 151 1750 151C1708.3 151 1666.7 151 1625 151C1583.3 151 1541.7 151 1500 151C1458.3 151 1416.7 151 1375 151C1333.3 151 1291.7 151 1250 151C1208.3 151 1166.7 151 1125 151C1083.3 151 1041.7 151 1000 151C958.3 151 916.7 151 875 151C833.3 151 791.7 151 750 151C708.3 151 666.7 151 625 151C583.3 151 541.7 151 500 151C458.3 151 416.7 151 375 151C333.3 151 291.7 151 250 151C208.3 151 166.7 151 125 151C83.3 151 41.7 151 20.8 151L0 151Z" fill="#6e6e6e" stroke-linecap="round" stroke-linejoin="miter"></path></svg>