<svg id="visual" viewBox="0 0 2500 150" width="2500" height="150" xmlns="http://www.w3.org/2000/svg" xmlns:xlink="http://www.w3.org/1999/xlink" version="1.1"><path d="M0 41L20.8 43C41.7 45 83.3 49 125 51.5C166.7 54 208.3 55 250 58.8C291.7 62.7 333.3 69.3 375 66C416.7 62.7 458.3 49.3 500 42.2C541.7 35 583.3 34 625 41.5C666.7 49 708.3 65 750 72.2C791.7 79.3 833.3 77.7 875 76.3C916.7 75 958.3 74 1000 68.7C1041.7 63.3 1083.3 53.7 1125 49C1166.7 44.3 1208.3 44.7 1250 50.7C1291.7 56.7 1333.3 68.3 1375 75.2C1416.7 82 1458.3 84 1500 80.5C1541.7 77 1583.3 68 1625 60.8C1666.7 53.7 1708.3 48.3 1750 44.2C1791.7 40 1833.3 37 1875 38C1916.7 39 1958.3 44 2000 50C2041.7 56 2083.3 63 2125 66.5C2166.7 70 2208.3 70 2250 72.3C2291.7 74.7 2333.3 79.3 2375 73.3C2416.7 67.3 2458.3 50.7 2479.2 42.3L2500 34L2500 0L2479.2 0C2458.3 0 2416.7 0 2375 0C2333.3 0 2291.7 0 2250 0C2208.3 0 2166.7 0 2125 0C2083.3 0 2041.7 0 2000 0C1958.3 0 1916.7 0 1875 0C1833.3 0 1791.7 0 1750 0C1708.3 0 1666.7 0 1625 0C1583.3 0 1541.7 0 1500 0C1458.3 0 1416.7 0 1375 0C1333.3 0 1291.7 0 1250 0C1208.3 0 1166.7 0 1125 0C1083.3 0 1041.7 0 1000 0C958.3 0 916.7 0 875 0C833.3 0 791.7 0 750 0C708.3 0 666.7 0 625 0C583.3 0 541.7 0 500 0C458.3 0 416.7 0 375 0C333.3 0 291.7 0 250 0C208.3 0 166.7 0 125 0C83.3 0 41.7 0 20.8 0L0 0Z" fill="#60a87e" stroke-linecap="round" stroke-linejoin="miter"></path></svg>